<?xml version="1.0" encoding="UTF-8"?>
<!DOCTYPE svg PUBLIC "-//W3C//DTD SVG 1.1//EN" "http://www.w3.org/Graphics/SVG/1.1/DTD/svg11.dtd">
<!-- Creator: CorelDRAW 2019 (64-Bit) -->
<svg xmlns="http://www.w3.org/2000/svg" xml:space="preserve" width="162.56mm" height="91.44mm" version="1.1" style="shape-rendering:geometricPrecision; text-rendering:geometricPrecision; image-rendering:optimizeQuality; fill-rule:evenodd; clip-rule:evenodd"
viewBox="0 0 16256 9144"
 xmlns:xlink="http://www.w3.org/1999/xlink"
 xmlns:xodm="http://www.corel.com/coreldraw/odm/2003">
 <defs>
  <style type="text/css">
   <![CDATA[
    .fil1 {fill:#BCDA84;fill-rule:nonzero}
    .fil2 {fill:white;fill-rule:nonzero}
    .fil0 {fill:black;fill-opacity:0.200000}
    .fil3 {fill:black;fill-rule:nonzero;fill-opacity:0.200000}
   ]]>
  </style>
 </defs>
 <g id="Layer_x0020_1">
  <metadata id="CorelCorpID_0Corel-Layer"/>
  <g id="_3155910780608">
   <path class="fil0" d="M8003.14 3359.08c-91.89,-39.9 -186.7,-74.43 -284.02,-103.15 -326.82,149.38 -616.67,365.6 -852.03,631.24 45.14,107.65 105.29,210.57 180.4,305.59 242.71,-351.86 571.37,-639.86 955.65,-833.68z"/>
   <path class="fil1" d="M6778.33 3161.46c-31.19,189.78 -20.86,385.18 31.02,571.51 40.17,144.26 105.37,283.1 195.55,409.66 124.26,-177.63 269.99,-339.16 433.4,-480.74 150.18,-130.13 315.28,-243.43 492.33,-336.98 -122.99,-48.76 -250.88,-88.02 -382.75,-116.88 -172.17,-37.68 -351.15,-57.54 -534.91,-57.54 -49.01,0 -95.82,1.32 -140.47,3.83 -31.25,1.76 -62.66,4.15 -94.17,7.14zm-91.47 605.36c-61.34,-220.32 -69.55,-452.51 -24.64,-676.2l9.16 -45.59 46.11 -5.19c48.33,-5.43 97.68,-9.64 148.05,-12.48 50.59,-2.85 99.81,-4.33 147.43,-4.33 192.72,0 380.72,20.89 561.81,60.52 186.1,40.72 364.98,101.33 534.24,179.47l125.11 57.74 -125.11 57.77c-214.04,98.81 -411.64,227.06 -587.56,379.47 -165.12,143.06 -311.26,307.48 -434.06,488.9l20.79 23.17 -93.61 86.15 -5.24 -5.75c-20.83,-22.93 -40.79,-46.36 -59.9,-70.27l-19.9 -24.39 0.38 -0.6c-113.77,-148.97 -194.8,-315.05 -243.06,-488.39zm350.71 613.84l-20 -21.19 93.61 -86.15 18.13 19.29 18.62 18.84c99.36,99.27 210.18,179.36 327.96,240.2 122.29,63.17 252.39,105.98 385.22,128.4l-20.91 125.47c-145.74,-24.58 -288.48,-71.54 -422.61,-140.83 -129.84,-67.06 -251.44,-154.8 -359.78,-263.12l0.12 -0.12 -20.36 -20.79z"/>
   <path class="fil1" d="M9106.97 2352.49c282.9,282.91 424.38,653.74 424.38,1024.54 0,370.8 -141.49,741.65 -424.38,1024.54 -282.91,282.91 -653.74,424.38 -1024.54,424.38 -370.8,0 -741.64,-141.47 -1024.54,-424.38 -282.91,-282.9 -424.38,-653.74 -424.38,-1024.54 0,-370.8 141.47,-741.63 424.38,-1024.54 282.89,-282.89 653.74,-424.38 1024.54,-424.38 370.8,0 741.63,141.48 1024.54,424.38zm296.91 1024.54c0,-338.21 -129.02,-676.4 -387.03,-934.42 -258.02,-258.01 -596.21,-387.03 -934.42,-387.03 -338.21,0 -676.43,129.03 -934.42,387.03 -258.01,258 -387.03,596.21 -387.03,934.42 0,338.21 129.01,676.41 387.03,934.42 258,258.02 596.21,387.03 934.42,387.03 338.21,0 676.42,-129.02 934.42,-387.03 257.99,-257.99 387.03,-596.21 387.03,-934.42z"/>
   <path class="fil1" d="M9502.55 3090.62c46.99,234.05 35.92,477.21 -33.23,706.3 -66.84,221.45 -187.64,429.93 -362.35,604.65 -282.91,282.9 -653.74,424.36 -1024.54,424.36 -370.8,0 -741.65,-141.47 -1024.54,-424.36 -15.02,-15.02 -31.97,-32.98 -50.82,-53.84 -17.34,-19.19 -33.47,-37.92 -48.29,-56.09l-29.22 -35.85 25.23 -38.84c237.63,-365.74 564.15,-668.49 948.92,-877.55 371.31,-201.75 796.51,-316.37 1248.1,-316.37 48.11,0 97.76,1.5 148.8,4.41 49.91,2.85 98.81,7.02 146.67,12.4l46.12 5.18 9.15 45.6zm-155.21 669.94c58.77,-194.69 71.8,-400.05 39.1,-599.1 -31.07,-2.95 -62.01,-5.31 -92.79,-7.07 -45.14,-2.56 -92.39,-3.9 -141.84,-3.9 -430.26,0 -834.73,108.85 -1187.35,300.44 -352.34,191.45 -653.37,465.49 -877.11,796.09l13.81 15.56c12.65,14 28.28,30.3 46.85,48.87 257.99,257.99 596.21,387.02 934.42,387.02 338.21,0 676.4,-129.01 934.42,-387.02 159.5,-159.51 269.68,-349.45 330.49,-550.89z"/>
   <polygon class="fil1" points="7230.17,3991.55 7592.57,4619.24 7482.54,4682.47 7120.14,4054.77 "/>
   <polygon class="fil1" points="7423.04,3781.01 7964.92,4719.56 7854.89,4783.29 7313.01,3844.74 "/>
   <polygon class="fil1" points="7631.82,3598.46 8281.11,4723.08 8171.08,4786.3 7521.79,3661.69 "/>
   <polygon class="fil1" points="7855.49,3441.55 8561.48,4664.38 8451.45,4727.6 7745.46,3504.78 "/>
   <polygon class="fil1" points="8093.75,3309.6 8812.78,4554.96 8702.75,4618.7 7983.72,3373.33 "/>
   <polygon class="fil1" points="8346.71,3203.41 9036.83,4398.71 8926.8,4462.45 8236.68,3267.14 "/>
   <polygon class="fil1" points="8615.08,3123.87 9232.65,4193.48 9122.62,4257.21 8505.05,3187.6 "/>
   <polygon class="fil1" points="8900.12,3073.2 9394.06,3928.73 9284.04,3992.46 8790.09,3136.93 "/>
   <polygon class="fil1" points="9203.85,3055.17 9503.6,3574.36 9393.57,3637.58 9093.82,3118.4 "/>
   <path class="fil2" d="M8467.32 5098.47c34.36,-7.28 68.15,14.68 75.43,49.05 7.28,34.36 -14.68,68.16 -49.05,75.43 -161.97,34.81 -327.32,47.98 -491.71,39.74 -164.51,-8.26 -327.93,-38 -485.9,-88.95 -497.05,-160.32 -882.14,-507.03 -1102.85,-937.92 -220.67,-430.82 -277.04,-945.8 -116.75,-1442.74l1.45 -4.4c160.96,-494.94 506.88,-878.41 936.47,-1098.47 430.81,-220.67 945.77,-277.03 1442.72,-116.75l4.46 1.48c470.66,153.05 842.55,474.67 1067.34,878.18 225.52,404.79 303.06,891.98 183.96,1374.1 -8.37,34.09 -42.83,54.93 -76.92,46.56 -34.1,-8.37 -54.94,-42.83 -46.57,-76.93 111.14,-449.9 38.84,-904.44 -171.49,-1281.98 -210.31,-377.53 -558.68,-678.2 -999.58,-820.4l-0.49 -0.16c-463.63,-149.4 -943.93,-96.85 -1345.67,108.94 -401.79,205.82 -725.12,564.97 -874.67,1028.63l-0.23 0.7c-149.33,463.57 -96.73,943.8 109.01,1345.48 205.82,401.8 564.99,725.14 1028.64,874.69 147.42,47.54 299.76,75.29 453.03,82.98 153.23,7.68 307.71,-4.67 459.37,-37.26z"/>
   <path class="fil2" d="M10051.31 3983.63c0,66.83 -27.11,127.35 -70.9,171.14l-0.24 0c-43.81,43.78 -104.25,70.9 -170.89,70.9 -66.84,0 -127.36,-27.12 -171.14,-70.9 -43.79,-43.79 -70.9,-104.31 -70.9,-171.14 0,-66.64 27.11,-127.08 70.9,-170.89l0 -0.25c43.78,-43.78 104.3,-70.89 171.14,-70.89 66.64,0 127.08,27.11 170.89,70.89l0.24 0.25c43.79,43.81 70.9,104.25 70.9,170.89zm-160.9 81.13l-0.12 -0.11c20.72,-20.71 33.55,-49.38 33.55,-81.02 0,-31.73 -12.77,-60.42 -33.43,-81.13 -20.72,-20.66 -49.41,-33.44 -81.13,-33.44 -31.64,0 -60.31,12.84 -81.02,33.55l-0.12 -0.11c-20.66,20.71 -33.43,49.4 -33.43,81.13 0,31.64 12.83,60.31 33.55,81.02 20.71,20.71 49.38,33.55 81.02,33.55 31.72,0 60.41,-12.77 81.13,-33.44z"/>
   <path class="fil3" d="M8964.04 4919.7c30.52,-17.33 69.32,-6.62 86.64,23.9 17.32,30.51 6.62,69.31 -23.9,86.64 -47.62,26.96 -96.77,51.99 -147.17,74.95 -50.9,23.18 -101.95,43.86 -152.94,61.87 -33.13,11.68 -69.48,-5.71 -81.15,-38.84 -11.68,-33.13 5.71,-69.48 38.83,-81.16 49.19,-17.37 96.75,-36.54 142.49,-57.38 46.36,-21.12 92.17,-44.49 137.2,-69.98z"/>
   <path class="fil3" d="M9207.92 4751.95c27.22,-22.13 67.26,-18.01 89.38,9.2 22.13,27.22 18.02,67.26 -9.2,89.38l-25.79 20.51 0.11 0.13 -26.29 20.2c-28.04,21.18 -67.95,15.61 -89.12,-12.44 -21.17,-28.04 -15.6,-67.95 12.44,-89.12l24.29 -18.73 0.26 0 23.92 -19.13z"/>
   <path class="fil2" d="M8085.36 7252.91l0 -815.37 -127.94 0 0 100.64c-63.11,-71.64 -139.88,-119.4 -252.46,-119.4 -187.63,0 -337.75,163.75 -337.75,481.04 0,315.57 141.59,452.04 320.7,452.04 121.11,0 206.4,-59.71 269.51,-127.94l0 46.05c0,208.11 -68.23,286.58 -366.75,295.11l40.95 97.23c332.63,-10.24 453.74,-139.87 453.74,-409.4zm-127.94 -141.57c-63.11,78.47 -141.58,129.64 -237.1,129.64 -141.58,0 -226.88,-117.7 -226.88,-342.87 0,-240.52 73.36,-368.46 221.76,-368.46 105.76,0 192.76,59.71 242.22,134.77l0 446.92zm574.86 -924.56c0,-51.17 -40.94,-92.1 -88.7,-92.1 -52.88,0 -93.82,40.93 -93.82,92.1 0,49.47 40.94,90.42 93.82,90.42 47.76,0 88.7,-40.95 88.7,-90.42zm-27.29 1146.31l0 -895.55 -127.94 0 0 895.55 127.94 0zm846.08 -233.7c0,-160.34 -98.94,-209.81 -267.82,-286.57 -151.82,-68.24 -197.87,-98.94 -197.87,-174 0,-64.82 54.58,-110.87 148.4,-110.87 95.53,0 153.53,25.59 223.46,80.17l71.65 -93.82c-68.24,-56.29 -163.76,-95.52 -286.58,-95.52 -162.05,0 -279.75,92.11 -279.75,228.57 0,143.3 75.06,197.88 254.17,274.64 158.64,68.23 211.52,109.17 211.52,182.52 0,86.99 -58,138.18 -180.82,138.18 -88.7,0 -172.29,-35.83 -243.94,-98.95l-75.04 93.83c85.28,68.22 192.75,114.29 315.57,114.29 155.22,0 307.05,-76.77 307.05,-252.47zm610.67 -554.38l0 -107.47 -221.75 0 0 -347.98 -127.94 71.64 0 276.34 -110.88 0 0 107.47 110.88 0 0 603.85c0,148.41 59.7,203 170.58,203 68.24,0 116,-10.24 165.46,-30.71l8.53 -110.88c-40.93,17.06 -75.05,25.59 -126.23,25.59 -68.23,0 -90.4,-27.3 -90.4,-107.46l0 -583.39 221.75 0zm412.81 -358.23c0,-51.17 -40.95,-92.1 -88.71,-92.1 -52.88,0 -93.81,40.93 -93.81,92.1 0,49.47 40.93,90.42 93.81,90.42 47.76,0 88.71,-40.95 88.71,-90.42zm-27.3 1146.31l0 -895.55 -127.93 0 0 895.55 127.93 0zm912.61 -808.56c-69.94,-61.41 -162.06,-105.75 -283.16,-105.75 -187.64,0 -385.52,139.88 -385.52,470.8 0,312.16 180.81,462.28 376.99,462.28 126.23,0 213.22,-47.76 288.28,-124.53l-76.77 -81.88c-61.41,59.7 -119.4,95.53 -206.39,95.53 -158.65,0 -252.47,-141.59 -252.47,-361.63 0,-223.46 107.47,-349.7 247.35,-349.7 90.4,0 150.1,32.42 214.93,90.42l76.76 -95.54zm769.32 574.86c0,-160.34 -98.94,-209.81 -267.82,-286.57 -151.82,-68.24 -197.87,-98.94 -197.87,-174 0,-64.82 54.58,-110.87 148.4,-110.87 95.53,0 153.53,25.59 223.46,80.17l71.65 -93.82c-68.24,-56.29 -163.76,-95.52 -286.58,-95.52 -162.05,0 -279.75,92.11 -279.75,228.57 0,143.3 75.06,197.88 254.17,274.64 158.64,68.23 211.52,109.17 211.52,182.52 0,86.99 -58,138.18 -180.82,138.18 -88.7,0 -172.29,-35.83 -243.93,-98.95l-75.05 93.83c85.28,68.22 192.75,114.29 315.57,114.29 155.22,0 307.05,-76.77 307.05,-252.47z"/>
   <path class="fil1" d="M4997.84 7333.09l0 -600.44c0,-201.29 -146.69,-313.87 -363.33,-313.87 -145,0 -231.99,30.71 -336.05,90.4l90.41 163.77c81.88,-44.36 138.17,-59.71 245.64,-59.71 85.29,0 127.93,51.18 127.93,114.29l0 44.35c-37.52,-18.77 -90.4,-35.83 -172.29,-35.83 -202.98,0 -363.33,98.95 -363.33,296.82 0,216.63 167.17,318.99 334.34,318.99 83.58,0 158.64,-34.12 201.28,-78.47l0 59.7 235.4 0zm-235.4 -262.69c-25.58,42.64 -86.99,81.87 -163.75,81.87 -100.65,0 -136.46,-56.29 -136.46,-119.4 0,-71.64 47.76,-112.59 136.46,-112.59 83.58,0 122.82,11.94 163.75,37.54l0 112.58zm1182.13 110.88l0 -743.74 -235.41 0 0 51.18c-42.64,-39.23 -110.87,-69.94 -189.34,-69.94 -221.75,0 -347.98,187.64 -347.98,455.45 0,334.33 156.93,477.63 347.98,477.63 85.29,0 144.99,-35.83 189.34,-75.06 0,138.17 -49.46,182.52 -233.69,208.1l83.58 177.41c313.87,-34.11 385.52,-185.94 385.52,-481.03zm-235.41 -126.24c-34.11,44.35 -71.63,75.06 -144.99,75.06 -92.11,0 -153.52,-76.76 -153.52,-260.99 0,-150.11 49.47,-228.58 139.87,-228.58 68.24,0 122.82,27.3 158.64,76.77l0 337.74zm1052.49 -573.15c-30.71,-32.4 -88.71,-63.11 -165.46,-63.11 -83.59,0 -143.29,35.81 -184.23,78.47l0 -59.71 -235.4 0 0 895.55 235.4 0 0 -484.44c0,-155.24 59.7,-194.47 151.81,-194.47 52.88,0 98.94,23.88 136.47,58l61.41 -230.29zm405.98 -252.46c0,-73.34 -61.41,-134.75 -134.76,-134.75 -73.35,0 -134.76,61.41 -134.76,134.75 0,73.35 61.41,134.76 134.76,134.76 73.35,0 134.76,-61.41 134.76,-134.76zm-17.06 1103.66l0 -895.55 -235.4 0 0 895.55 235.4 0z"/>
  </g>
 </g>
</svg>
